<svg width="269" height="297" viewBox="0 0 269 297" fill="none" xmlns="http://www.w3.org/2000/svg">
<path d="M2.5811 184.039C1.78691 184.039 1.14715 183.796 0.661819 183.313C0.220605 182.872 0 182.257 0 181.465V150.302C0.0441237 146.869 0.860365 143.789 2.44873 141.06C4.08124 138.287 6.26524 136.109 9.00074 134.525C11.7804 132.939 14.8909 132.147 18.3324 132.147C21.862 132.147 25.0167 132.961 27.7964 134.591C30.5761 136.175 32.76 138.353 34.3484 141.126C35.9809 143.899 36.7971 147.046 36.7971 150.566C36.7971 154.044 36.003 157.169 34.4146 159.942C32.8704 162.714 30.7525 164.915 28.0611 166.543C25.3697 168.127 22.3253 168.921 18.928 168.921C15.9718 168.921 13.2805 168.304 10.8538 167.071C8.47128 165.796 6.55201 164.123 5.096 162.054V181.465C5.096 182.257 4.85332 182.872 4.368 183.313C3.92676 183.796 3.33113 184.039 2.5811 184.039ZM18.3324 164.299C20.8914 164.299 23.1857 163.704 25.2153 162.516C27.2449 161.328 28.8333 159.7 29.9804 157.631C31.1716 155.518 31.7673 153.163 31.7673 150.566C31.7673 147.926 31.1716 145.571 29.9804 143.503C28.8333 141.434 27.2449 139.806 25.2153 138.617C23.1857 137.385 20.8914 136.769 18.3324 136.769C15.8175 136.769 13.5453 137.385 11.5157 138.617C9.48604 139.806 7.89768 141.434 6.75055 143.503C5.60343 145.571 5.02982 147.926 5.02982 150.566C5.02982 153.163 5.60343 155.518 6.75055 157.631C7.89768 159.7 9.48604 161.328 11.5157 162.516C13.5453 163.704 15.8175 164.299 18.3324 164.299ZM48.9104 146.341C49.0429 143.612 49.7488 141.17 51.0283 139.014C52.352 136.856 54.0505 135.162 56.1243 133.929C58.2421 132.697 60.5806 132.081 63.1395 132.081C65.1692 132.081 66.7355 132.367 67.8387 132.939C68.9418 133.512 69.3608 134.348 69.0961 135.449C68.9194 136.109 68.611 136.549 68.1695 136.769C67.7724 136.988 67.2648 137.077 66.6472 137.033C66.0737 136.988 65.4118 136.945 64.6618 136.901C62.191 136.681 59.9849 136.945 58.0436 137.693C56.1464 138.397 54.6242 139.497 53.4771 140.994C52.374 142.49 51.8224 144.274 51.8224 146.341H48.9104ZM49.3076 168.591C48.5133 168.591 47.8956 168.37 47.4545 167.929C47.0133 167.49 46.7926 166.873 46.7926 166.081V134.987C46.7926 134.193 47.0133 133.578 47.4545 133.137C47.8956 132.697 48.5133 132.477 49.3076 132.477C50.1017 132.477 50.7195 132.697 51.1607 133.137C51.6019 133.578 51.8224 134.193 51.8224 134.987V166.081C51.8224 166.873 51.6019 167.49 51.1607 167.929C50.7195 168.37 50.1017 168.591 49.3076 168.591ZM90.934 168.921C87.4045 168.921 84.2495 168.127 81.47 166.543C78.6903 164.959 76.5063 162.78 74.9179 160.008C73.3295 157.235 72.5354 154.087 72.5354 150.566C72.5354 147.001 73.3295 143.833 74.9179 141.06C76.5063 138.287 78.6903 136.109 81.47 134.525C84.2495 132.939 87.4045 132.147 90.934 132.147C94.4633 132.147 97.5965 132.939 100.332 134.525C103.111 136.109 105.295 138.287 106.884 141.06C108.472 143.833 109.288 147.001 109.333 150.566C109.333 154.087 108.517 157.235 106.884 160.008C105.295 162.78 103.111 164.959 100.332 166.543C97.5965 168.127 94.4633 168.921 90.934 168.921ZM90.934 164.299C93.4932 164.299 95.787 163.704 97.8168 162.516C99.8467 161.328 101.435 159.7 102.582 157.631C103.729 155.562 104.303 153.208 104.303 150.566C104.303 147.926 103.729 145.571 102.582 143.503C101.435 141.39 99.8467 139.74 97.8168 138.551C95.787 137.363 93.4932 136.769 90.934 136.769C88.3747 136.769 86.0808 137.363 84.0511 138.551C82.0212 139.74 80.411 141.39 79.2197 143.503C78.0728 145.571 77.499 147.926 77.499 150.566C77.499 153.208 78.0728 155.562 79.2197 157.631C80.411 159.7 82.0212 161.328 84.0511 162.516C86.0808 163.704 88.3747 164.299 90.934 164.299ZM141.229 168.591C140.7 168.591 140.258 168.502 139.906 168.325C139.597 168.15 139.265 167.842 138.913 167.401L127.463 152.878L125.478 151.16L113.962 136.571C113.477 135.998 113.234 135.404 113.234 134.789C113.278 134.172 113.499 133.644 113.896 133.203C114.293 132.72 114.866 132.477 115.617 132.477C116.367 132.477 117.007 132.741 117.536 133.269L128.655 147.464L130.442 148.916L142.752 164.629C143.325 165.333 143.568 165.994 143.48 166.609C143.391 167.226 143.104 167.71 142.619 168.061C142.178 168.414 141.715 168.591 141.229 168.591ZM115.021 168.591C114.315 168.591 113.741 168.37 113.3 167.929C112.903 167.49 112.682 166.961 112.639 166.345C112.639 165.73 112.881 165.135 113.367 164.563L125.544 149.378L128.39 153.142L116.808 167.797C116.411 168.325 115.815 168.591 115.021 168.591ZM130.508 151.426L127.265 148.124L138.714 133.665C139.022 133.226 139.354 132.918 139.707 132.741C140.104 132.565 140.501 132.477 140.899 132.477C141.649 132.477 142.222 132.72 142.619 133.203C143.016 133.644 143.192 134.193 143.148 134.855C143.148 135.47 142.927 136.064 142.487 136.637L130.508 151.426Z" fill="white"/>
<path d="M203.055 168.919C199.614 168.919 196.504 168.127 193.724 166.542C190.989 164.958 188.804 162.802 187.172 160.073C185.583 157.3 184.768 154.196 184.723 150.764V119.602C184.723 118.81 184.944 118.194 185.385 117.754C185.87 117.27 186.509 117.028 187.305 117.028C188.055 117.028 188.65 117.27 189.092 117.754C189.576 118.194 189.819 118.81 189.819 119.602V139.012C191.275 136.944 193.194 135.294 195.578 134.061C198.004 132.784 200.695 132.146 203.651 132.146C207.048 132.146 210.093 132.961 212.784 134.589C215.476 136.173 217.594 138.352 219.138 141.124C220.726 143.898 221.52 147.023 221.52 150.499C221.52 154.021 220.704 157.168 219.071 159.941C217.483 162.713 215.299 164.914 212.519 166.542C209.74 168.127 206.584 168.919 203.055 168.919ZM203.055 164.298C205.615 164.298 207.909 163.704 209.938 162.515C211.968 161.282 213.556 159.632 214.704 157.564C215.894 155.495 216.491 153.14 216.491 150.499C216.491 147.903 215.894 145.571 214.704 143.502C213.556 141.388 211.968 139.738 209.938 138.55C207.909 137.361 205.615 136.767 203.055 136.767C200.54 136.767 198.269 137.361 196.239 138.55C194.209 139.738 192.621 141.388 191.474 143.502C190.326 145.571 189.753 147.903 189.753 150.499C189.753 153.14 190.326 155.495 191.474 157.564C192.621 159.632 194.209 161.282 196.239 162.515C198.269 163.704 200.54 164.298 203.055 164.298ZM235.156 168.589C234.362 168.589 233.722 168.368 233.236 167.929C232.796 167.444 232.575 166.806 232.575 166.014V135.051C232.575 134.259 232.796 133.642 233.236 133.202C233.722 132.718 234.362 132.476 235.156 132.476C235.905 132.476 236.502 132.718 236.942 133.202C237.428 133.642 237.671 134.259 237.671 135.051V166.014C237.671 166.806 237.428 167.444 236.942 167.929C236.502 168.368 235.905 168.589 235.156 168.589ZM235.089 125.61C234.119 125.61 233.28 125.258 232.575 124.554C231.869 123.85 231.516 122.991 231.516 121.979C231.516 120.879 231.869 120.02 232.575 119.404C233.325 118.744 234.185 118.414 235.156 118.414C236.082 118.414 236.898 118.744 237.605 119.404C238.355 120.02 238.729 120.879 238.729 121.979C238.729 122.991 238.377 123.85 237.671 124.554C236.965 125.258 236.104 125.61 235.089 125.61ZM264.809 168.589C262.471 168.589 260.375 168.038 258.522 166.938C256.713 165.838 255.28 164.341 254.221 162.449C253.162 160.512 252.633 158.312 252.633 155.848V123.563C252.633 122.815 252.852 122.199 253.294 121.715C253.779 121.231 254.396 120.989 255.147 120.989C255.897 120.989 256.514 121.231 257 121.715C257.485 122.199 257.728 122.815 257.728 123.563V155.848C257.728 158.092 258.39 159.941 259.714 161.393C261.037 162.802 262.735 163.506 264.809 163.506H266.596C267.302 163.506 267.876 163.747 268.318 164.232C268.759 164.716 268.979 165.332 268.979 166.08C268.979 166.829 268.714 167.444 268.185 167.929C267.655 168.368 266.994 168.589 266.2 168.589H264.809ZM248.33 138.22C247.669 138.22 247.116 138.022 246.676 137.625C246.234 137.186 246.014 136.658 246.014 136.041C246.014 135.381 246.234 134.853 246.676 134.457C247.116 134.017 247.669 133.797 248.33 133.797H265.207C265.868 133.797 266.419 134.017 266.861 134.457C267.302 134.853 267.523 135.381 267.523 136.041C267.523 136.658 267.302 137.186 266.861 137.625C266.419 138.022 265.868 138.22 265.207 138.22H248.33Z" fill="white"/>
<path fill-rule="evenodd" clip-rule="evenodd" d="M173.594 113.284C174.284 113.98 174.299 115.111 173.707 115.898C169.043 122.099 164.984 135.381 164.317 153.421C164.192 156.789 164.186 160.324 164.317 164.01C164.362 165.286 164.424 166.58 164.502 167.891L164.513 168.084C164.643 170.213 161.87 170.894 161.294 168.844C161.242 168.663 161.193 168.483 161.144 168.302C160.8 167.056 160.482 165.825 160.188 164.606C159.284 160.852 158.612 157.231 158.14 153.755C155.12 131.514 160.272 115.173 164.912 107.4C165.475 106.459 166.726 106.358 167.493 107.131L173.594 113.284Z" fill="white"/>
<path fill-rule="evenodd" clip-rule="evenodd" d="M251.474 196.731C226.589 269.568 133.832 297 133.832 297C133.832 297 41.0738 269.568 16.1883 196.731H251.474ZM258.024 104.387C257.851 104.474 257.677 104.567 257.5 104.667C238.271 115.556 214.017 107.016 188.157 97.9111C169.397 91.3063 149.792 84.4038 130.648 84.4038C111.969 84.4038 95.6975 91.4492 79.9485 98.2684C57.3047 108.073 35.7406 117.41 9.65082 104.667C9.64852 104.665 9.64622 104.664 9.64392 104.663C9.56326 99.7963 9.48114 95.345 9.40594 91.2672C8.7142 53.7637 8.60546 47.8685 15.5576 41.0785C25.4755 31.3759 117.608 0 133.832 0C150.055 0 242.187 31.3759 252.122 41.0785C259.06 47.8654 258.951 53.7583 258.258 91.2159C258.184 95.2303 258.103 99.6073 258.024 104.387Z" fill="url(#paint0_linear_1301_1852)"/>
<path d="M194.93 86.3077C199.236 86.3077 202.727 82.8982 202.727 78.6923C202.727 74.4864 199.236 71.0769 194.93 71.0769C190.624 71.0769 187.133 74.4864 187.133 78.6923C187.133 82.8982 190.624 86.3077 194.93 86.3077Z" fill="#1F1998" stroke="#1F1998" stroke-width="4"/>
<defs>
<linearGradient id="paint0_linear_1301_1852" x1="66.5884" y1="2.21643e-06" x2="206.975" y2="283.425" gradientUnits="userSpaceOnUse">
<stop offset="0.223958" stop-color="white"/>
<stop offset="1" stop-color="white" stop-opacity="0.78"/>
</linearGradient>
</defs>
</svg>
