<svg width="24" height="20" viewBox="0 0 24 20" fill="none" xmlns="http://www.w3.org/2000/svg">
<mask id="path-1-inside-1_346_4108" fill="white">
<path d="M20.25 0.00878906C21.2446 0.00878906 22.1984 0.403877 22.9016 1.10714C23.6049 1.8104 24 2.76423 24 3.75879V15.7588C24 16.7534 23.6049 17.7072 22.9016 18.4104C22.1984 19.1137 21.2446 19.5088 20.25 19.5088H3.75C2.75544 19.5088 1.80161 19.1137 1.09835 18.4104C0.395088 17.7072 0 16.7534 0 15.7588V3.75879C0 2.76423 0.395088 1.8104 1.09835 1.10714C1.80161 0.403877 2.75544 0.00878906 3.75 0.00878906H20.25ZM22.5 5.95029L12.381 11.9053C12.2853 11.9615 12.1784 11.9957 12.0679 12.0056C11.9574 12.0154 11.8461 12.0006 11.742 11.9623L11.619 11.9053L1.5 5.95329V15.7588C1.5 16.3555 1.73705 16.9278 2.15901 17.3498C2.58097 17.7717 3.15326 18.0088 3.75 18.0088H20.25C20.8467 18.0088 21.419 17.7717 21.841 17.3498C22.2629 16.9278 22.5 16.3555 22.5 15.7588V5.95029ZM20.25 1.50879H3.75C3.15326 1.50879 2.58097 1.74584 2.15901 2.1678C1.73705 2.58976 1.5 3.16205 1.5 3.75879V4.21179L12 10.3888L22.5 4.20879V3.75879C22.5 3.16205 22.2629 2.58976 21.841 2.1678C21.419 1.74584 20.8467 1.50879 20.25 1.50879Z"/>
</mask>
<path d="M20.25 0.00878906C21.2446 0.00878906 22.1984 0.403877 22.9016 1.10714C23.6049 1.8104 24 2.76423 24 3.75879V15.7588C24 16.7534 23.6049 17.7072 22.9016 18.4104C22.1984 19.1137 21.2446 19.5088 20.25 19.5088H3.75C2.75544 19.5088 1.80161 19.1137 1.09835 18.4104C0.395088 17.7072 0 16.7534 0 15.7588V3.75879C0 2.76423 0.395088 1.8104 1.09835 1.10714C1.80161 0.403877 2.75544 0.00878906 3.75 0.00878906H20.25ZM22.5 5.95029L12.381 11.9053C12.2853 11.9615 12.1784 11.9957 12.0679 12.0056C11.9574 12.0154 11.8461 12.0006 11.742 11.9623L11.619 11.9053L1.5 5.95329V15.7588C1.5 16.3555 1.73705 16.9278 2.15901 17.3498C2.58097 17.7717 3.15326 18.0088 3.75 18.0088H20.25C20.8467 18.0088 21.419 17.7717 21.841 17.3498C22.2629 16.9278 22.5 16.3555 22.5 15.7588V5.95029ZM20.25 1.50879H3.75C3.15326 1.50879 2.58097 1.74584 2.15901 2.1678C1.73705 2.58976 1.5 3.16205 1.5 3.75879V4.21179L12 10.3888L22.5 4.20879V3.75879C22.5 3.16205 22.2629 2.58976 21.841 2.1678C21.419 1.74584 20.8467 1.50879 20.25 1.50879Z" fill="white"/>
<path d="M20.25 0.00878906V-3.99121V0.00878906ZM22.5 5.95029H26.5V-1.04495L20.4713 2.50295L22.5 5.95029ZM12.381 11.9053L14.4063 15.3547L14.4097 15.3526L12.381 11.9053ZM11.742 11.9623L10.0601 15.5915L10.2072 15.6597L10.3593 15.7157L11.742 11.9623ZM11.619 11.9053L9.59101 15.3531L9.75964 15.4523L9.93715 15.5345L11.619 11.9053ZM1.5 5.95329L3.52799 2.5055L-2.5 -1.04017V5.95329H1.5ZM3.75 18.0088V22.0088V18.0088ZM20.25 18.0088V22.0088V18.0088ZM1.5 4.21179H-2.5V6.49947L-0.52821 7.65945L1.5 4.21179ZM12 10.3888L9.97179 13.8364L12.0005 15.0299L14.0289 13.836L12 10.3888ZM22.5 4.20879L24.5289 7.65602L26.5 6.49591V4.20879H22.5ZM22.5 3.75879H26.5H22.5ZM20.25 4.00879C20.1837 4.00879 20.1201 3.98245 20.0732 3.93557L25.7301 -1.72129C24.2767 -3.1747 22.3054 -3.99121 20.25 -3.99121V4.00879ZM20.0732 3.93557C20.0263 3.88868 20 3.82509 20 3.75879H28C28 1.70336 27.1835 -0.267882 25.7301 -1.72129L20.0732 3.93557ZM20 3.75879V15.7588H28V3.75879H20ZM20 15.7588C20 15.6925 20.0263 15.6289 20.0732 15.582L25.7301 21.2389C27.1835 19.7855 28 17.8142 28 15.7588H20ZM20.0732 15.582C20.1201 15.5351 20.1837 15.5088 20.25 15.5088V23.5088C22.3054 23.5088 24.2767 22.6923 25.7301 21.2389L20.0732 15.582ZM20.25 15.5088H3.75V23.5088H20.25V15.5088ZM3.75 15.5088C3.8163 15.5088 3.87989 15.5351 3.92678 15.582L-1.73008 21.2389C-0.276671 22.6923 1.69457 23.5088 3.75 23.5088V15.5088ZM3.92678 15.582C3.97366 15.6289 4 15.6925 4 15.7588H-4C-4 17.8142 -3.18348 19.7855 -1.73008 21.2389L3.92678 15.582ZM4 15.7588V3.75879H-4V15.7588H4ZM4 3.75879C4 3.82509 3.97366 3.88868 3.92678 3.93557L-1.73008 -1.72129C-3.18348 -0.267882 -4 1.70336 -4 3.75879H4ZM3.92678 3.93557C3.87989 3.98245 3.8163 4.00879 3.75 4.00879V-3.99121C1.69457 -3.99121 -0.276671 -3.1747 -1.73008 -1.72129L3.92678 3.93557ZM3.75 4.00879H20.25V-3.99121H3.75V4.00879ZM20.4713 2.50295L10.3522 8.45795L14.4097 15.3526L24.5287 9.39763L20.4713 2.50295ZM10.3557 8.45589C10.7703 8.2125 11.2337 8.06409 11.7125 8.02138L12.4233 15.9897C13.1231 15.9273 13.8004 15.7104 14.4063 15.3547L10.3557 8.45589ZM11.7125 8.02138C12.1913 7.97867 12.6737 8.04271 13.1247 8.20889L10.3593 15.7157C11.0185 15.9586 11.7235 16.0522 12.4233 15.9897L11.7125 8.02138ZM13.4239 8.33305L13.3009 8.27605L9.93715 15.5345L10.0601 15.5915L13.4239 8.33305ZM13.647 8.4575L3.52799 2.5055L-0.527991 9.40108L9.59101 15.3531L13.647 8.4575ZM-2.5 5.95329V15.7588H5.5V5.95329H-2.5ZM-2.5 15.7588C-2.5 17.4164 -1.84152 19.0061 -0.669417 20.1782L4.98744 14.5214C5.31563 14.8495 5.5 15.2947 5.5 15.7588H-2.5ZM-0.669417 20.1782C0.502686 21.3503 2.0924 22.0088 3.75 22.0088V14.0088C4.21413 14.0088 4.65925 14.1932 4.98744 14.5214L-0.669417 20.1782ZM3.75 22.0088H20.25V14.0088H3.75V22.0088ZM20.25 22.0088C21.9076 22.0088 23.4973 21.3503 24.6694 20.1782L19.0126 14.5214C19.3407 14.1932 19.7859 14.0088 20.25 14.0088V22.0088ZM24.6694 20.1782C25.8415 19.0061 26.5 17.4164 26.5 15.7588H18.5C18.5 15.2947 18.6844 14.8495 19.0126 14.5214L24.6694 20.1782ZM26.5 15.7588V5.95029H18.5V15.7588H26.5ZM20.25 -2.49121H3.75V5.50879H20.25V-2.49121ZM3.75 -2.49121C2.0924 -2.49121 0.502686 -1.83273 -0.669417 -0.660629L4.98744 4.99623C4.65925 5.32442 4.21413 5.50879 3.75 5.50879V-2.49121ZM-0.669417 -0.660629C-1.84152 0.511474 -2.5 2.10119 -2.5 3.75879H5.5C5.5 4.22292 5.31563 4.66804 4.98744 4.99623L-0.669417 -0.660629ZM-2.5 3.75879V4.21179H5.5V3.75879H-2.5ZM-0.52821 7.65945L9.97179 13.8364L14.0282 6.94113L3.52821 0.764128L-0.52821 7.65945ZM14.0289 13.836L24.5289 7.65602L20.4711 0.761559L9.97106 6.94156L14.0289 13.836ZM26.5 4.20879V3.75879H18.5V4.20879H26.5ZM26.5 3.75879C26.5 2.10118 25.8415 0.51147 24.6694 -0.660629L19.0126 4.99623C18.6844 4.66804 18.5 4.22292 18.5 3.75879H26.5ZM24.6694 -0.660629C23.4973 -1.83273 21.9076 -2.49121 20.25 -2.49121V5.50879C19.7859 5.50879 19.3407 5.32441 19.0126 4.99623L24.6694 -0.660629Z" fill="white" mask="url(#path-1-inside-1_346_4108)"/>
</svg>
