<svg width="115" height="128" viewBox="0 0 115 128" fill="none" xmlns="http://www.w3.org/2000/svg">
<path d="M1.10344 79.3162C0.763922 79.3162 0.490418 79.2117 0.282934 79.0033C0.0943105 78.8135 0 78.5482 0 78.2068V64.7767C0.0188633 63.297 0.367814 61.9694 1.04686 60.7934C1.74477 59.5982 2.67845 58.6595 3.8479 57.9768C5.03622 57.2936 6.366 56.9523 7.83728 56.9523C9.34622 56.9523 10.6949 57.3029 11.8832 58.0053C13.0716 58.6879 14.0052 59.6266 14.6843 60.8218C15.3822 62.017 15.7311 63.3731 15.7311 64.8905C15.7311 66.3893 15.3916 67.736 14.7126 68.9312C14.0524 70.1259 13.147 71.0744 11.9964 71.7762C10.8458 72.4589 9.54428 72.8007 8.09189 72.8007C6.82811 72.8007 5.67756 72.5349 4.64011 72.0038C3.62155 71.454 2.80104 70.7331 2.17859 69.8414V78.2068C2.17859 78.5482 2.07484 78.8135 1.86736 79.0033C1.67873 79.2117 1.42409 79.3162 1.10344 79.3162ZM7.83728 70.8091C8.93128 70.8091 9.91211 70.5525 10.7798 70.0405C11.6474 69.5285 12.3265 68.8267 12.8169 67.9351C13.3262 67.0243 13.5808 66.0096 13.5808 64.8905C13.5808 63.7527 13.3262 62.7374 12.8169 61.8464C12.3265 60.9547 11.6474 60.2529 10.7798 59.7404C9.91211 59.2098 8.93128 58.9439 7.83728 58.9439C6.76211 58.9439 5.79072 59.2098 4.92305 59.7404C4.05537 60.2529 3.37633 60.9547 2.88592 61.8464C2.39552 62.7374 2.15029 63.7527 2.15029 64.8905C2.15029 66.0096 2.39552 67.0243 2.88592 67.9351C3.37633 68.8267 4.05537 69.5285 4.92305 70.0405C5.79072 70.5525 6.76211 70.8091 7.83728 70.8091ZM20.9097 63.0695C20.9663 61.8934 21.2681 60.841 21.8151 59.9116C22.3809 58.9817 23.1071 58.2514 23.9937 57.7203C24.8991 57.1891 25.8988 56.9238 26.9927 56.9238C27.8604 56.9238 28.5301 57.0469 29.0017 57.2936C29.4733 57.5403 29.6524 57.9008 29.5392 58.375C29.4637 58.6595 29.3318 58.8493 29.1431 58.9439C28.9733 59.0386 28.7563 59.0768 28.4923 59.0577C28.2471 59.0386 27.9642 59.02 27.6435 59.0008C26.5872 58.9062 25.6441 59.02 24.8142 59.3422C24.0031 59.6457 23.3523 60.12 22.8619 60.7649C22.3904 61.4098 22.1546 62.1784 22.1546 63.0695H20.9097ZM21.0794 72.6585C20.7399 72.6585 20.4758 72.5633 20.2872 72.3735C20.0986 72.1843 20.0043 71.9184 20.0043 71.5771V58.1759C20.0043 57.834 20.0986 57.5688 20.2872 57.3789C20.4758 57.1891 20.7399 57.0945 21.0794 57.0945C21.4189 57.0945 21.6831 57.1891 21.8717 57.3789C22.0603 57.5688 22.1546 57.834 22.1546 58.1759V71.5771C22.1546 71.9184 22.0603 72.1843 21.8717 72.3735C21.6831 72.5633 21.4189 72.6585 21.0794 72.6585ZM38.8751 72.8007C37.3662 72.8007 36.0174 72.4589 34.8292 71.7762C33.6408 71.0935 32.7072 70.1543 32.0281 68.9597C31.3491 67.7644 31.0096 66.4079 31.0096 64.8905C31.0096 63.3539 31.3491 61.9886 32.0281 60.7934C32.7072 59.5982 33.6408 58.6595 34.8292 57.9768C36.0174 57.2936 37.3662 56.9523 38.8751 56.9523C40.3839 56.9523 41.7234 57.2936 42.8928 57.9768C44.0811 58.6595 45.0148 59.5982 45.6938 60.7934C46.3728 61.9886 46.7217 63.3539 46.7407 64.8905C46.7407 66.4079 46.3918 67.7644 45.6938 68.9597C45.0148 70.1543 44.0811 71.0935 42.8928 71.7762C41.7234 72.4589 40.3839 72.8007 38.8751 72.8007ZM38.8751 70.8091C39.9692 70.8091 40.9498 70.5525 41.8176 70.0405C42.6854 69.5285 43.3644 68.8267 43.8547 67.9351C44.3451 67.0435 44.5903 66.0288 44.5903 64.8905C44.5903 63.7527 44.3451 62.7374 43.8547 61.8464C43.3644 60.9356 42.6854 60.2245 41.8176 59.7119C40.9498 59.1999 39.9692 58.9439 38.8751 58.9439C37.781 58.9439 36.8003 59.1999 35.9326 59.7119C35.0648 60.2245 34.3764 60.9356 33.8672 61.8464C33.3768 62.7374 33.1316 63.7527 33.1316 64.8905C33.1316 66.0288 33.3768 67.0435 33.8672 67.9351C34.3764 68.8267 35.0648 69.5285 35.9326 70.0405C36.8003 70.5525 37.781 70.8091 38.8751 70.8091ZM60.3767 72.6585C60.1506 72.6585 59.9617 72.6202 59.8111 72.5442C59.6789 72.4687 59.5372 72.3358 59.3867 72.146L54.4918 65.8866L53.643 65.1465L48.7199 58.8586C48.5123 58.6119 48.4087 58.3559 48.4087 58.0906C48.4274 57.8247 48.5219 57.5972 48.6917 57.4074C48.8614 57.199 49.1064 57.0945 49.4273 57.0945C49.7478 57.0945 50.0214 57.2083 50.2478 57.4358L55.0011 63.5536L55.765 64.1793L61.0278 70.9513C61.2728 71.2543 61.3767 71.5393 61.3389 71.8046C61.3011 72.0705 61.1783 72.2789 60.9711 72.4304C60.7822 72.5825 60.5844 72.6585 60.3767 72.6585ZM49.1727 72.6585C48.8707 72.6585 48.6254 72.5633 48.437 72.3735C48.2673 72.1843 48.1727 71.9562 48.1541 71.6909C48.1541 71.4256 48.2576 71.169 48.4653 70.9229L53.6713 64.3785L54.8879 66.0003L49.9366 72.3166C49.7668 72.5442 49.5122 72.6585 49.1727 72.6585ZM55.7933 65.2608L54.4069 63.838L59.3017 57.6065C59.4333 57.4172 59.575 57.2843 59.7261 57.2083C59.8956 57.1322 60.0656 57.0945 60.2356 57.0945C60.5561 57.0945 60.8011 57.199 60.9711 57.4074C61.1406 57.5972 61.2161 57.834 61.1972 58.119C61.1972 58.3843 61.1028 58.6403 60.9144 58.887L55.7933 65.2608Z" fill="white"/>
<path d="M86.8099 72.8006C85.3388 72.8006 84.0093 72.4593 82.821 71.7761C81.6515 71.0934 80.7177 70.1641 80.0199 68.988C79.3404 67.7928 78.9921 66.4553 78.9727 64.9762V51.5462C78.9727 51.2047 79.0671 50.9392 79.256 50.7495C79.4632 50.5409 79.7365 50.4365 80.0765 50.4365C80.3971 50.4365 80.6515 50.5409 80.8404 50.7495C81.0477 50.9392 81.1515 51.2047 81.1515 51.5462V59.9115C81.7738 59.0199 82.5943 58.3087 83.6132 57.7776C84.6504 57.2273 85.801 56.9522 87.0649 56.9522C88.5171 56.9522 89.8188 57.3033 90.9693 58.0052C92.1199 58.6878 93.0254 59.627 93.6854 60.8217C94.3643 62.0169 94.7038 63.3637 94.7038 64.8619C94.7038 66.3799 94.3549 67.7359 93.6571 68.9311C92.9782 70.1258 92.0443 71.0743 90.856 71.7761C89.6677 72.4593 88.3188 72.8006 86.8099 72.8006ZM86.8099 70.809C87.9043 70.809 88.8849 70.553 89.7527 70.0404C90.6204 69.5093 91.2993 68.7982 91.7899 67.9066C92.2988 67.0149 92.5538 66.0002 92.5538 64.8619C92.5538 63.7433 92.2988 62.7379 91.7899 61.8462C91.2993 60.9355 90.6204 60.2244 89.7527 59.7124C88.8849 59.1998 87.9043 58.9438 86.8099 58.9438C85.7349 58.9438 84.7638 59.1998 83.896 59.7124C83.0282 60.2244 82.3493 60.9355 81.8588 61.8462C81.3682 62.7379 81.1232 63.7433 81.1232 64.8619C81.1232 66.0002 81.3682 67.0149 81.8588 67.9066C82.3493 68.7982 83.0282 69.5093 83.896 70.0404C84.7638 70.553 85.7349 70.809 86.8099 70.809ZM100.533 72.6584C100.194 72.6584 99.9204 72.5632 99.7127 72.374C99.5243 72.165 99.4299 71.8899 99.4299 71.5485V58.2043C99.4299 57.8629 99.5243 57.5971 99.7127 57.4073C99.9204 57.1989 100.194 57.0944 100.533 57.0944C100.854 57.0944 101.109 57.1989 101.297 57.4073C101.505 57.5971 101.609 57.8629 101.609 58.2043V71.5485C101.609 71.8899 101.505 72.165 101.297 72.374C101.109 72.5632 100.854 72.6584 100.533 72.6584ZM100.505 54.1354C100.09 54.1354 99.7315 53.9837 99.4299 53.6802C99.1282 53.3766 98.9771 53.0068 98.9771 52.5705C98.9771 52.0963 99.1282 51.7264 99.4299 51.4609C99.7504 51.1763 100.118 51.034 100.533 51.034C100.929 51.034 101.278 51.1763 101.58 51.4609C101.901 51.7264 102.061 52.0963 102.061 52.5705C102.061 53.0068 101.91 53.3766 101.609 53.6802C101.307 53.9837 100.939 54.1354 100.505 54.1354ZM113.21 72.6584C112.211 72.6584 111.315 72.421 110.523 71.9468C109.749 71.4725 109.137 70.8276 108.684 70.012C108.231 69.1773 108.005 68.2293 108.005 67.167V53.2533C108.005 52.9309 108.099 52.6653 108.288 52.4567C108.495 52.2481 108.759 52.1437 109.08 52.1437C109.4 52.1437 109.664 52.2481 109.872 52.4567C110.079 52.6653 110.183 52.9309 110.183 53.2533V67.167C110.183 68.1341 110.466 68.9311 111.032 69.5569C111.598 70.1641 112.324 70.4677 113.21 70.4677H113.974C114.276 70.4677 114.522 70.5716 114.71 70.7805C114.899 70.989 114.993 71.2548 114.993 71.577C114.993 71.8997 114.88 72.165 114.654 72.374C114.427 72.5632 114.144 72.6584 113.805 72.6584H113.21ZM106.165 59.5701C105.883 59.5701 105.647 59.4848 105.458 59.3136C105.269 59.1243 105.175 58.8968 105.175 58.6309C105.175 58.3465 105.269 58.1189 105.458 57.9483C105.647 57.7585 105.883 57.6638 106.165 57.6638H113.38C113.663 57.6638 113.899 57.7585 114.088 57.9483C114.276 58.1189 114.37 58.3465 114.37 58.6309C114.37 58.8968 114.276 59.1243 114.088 59.3136C113.899 59.4848 113.663 59.5701 113.38 59.5701H106.165Z" fill="white"/>
<path fill-rule="evenodd" clip-rule="evenodd" d="M74.215 48.8232C74.51 49.1234 74.5161 49.6107 74.2633 49.9497C72.2694 52.6222 70.5339 58.3466 70.2489 66.1212C70.1955 67.573 70.1928 69.0964 70.2489 70.6849C70.2683 71.2347 70.2944 71.7926 70.3277 72.3577L70.3328 72.4408C70.3883 73.3582 69.2028 73.6519 68.9566 72.7685C68.9344 72.6903 68.9133 72.6126 68.8922 72.5349C68.7455 71.9978 68.6094 71.4672 68.4839 70.942C68.0972 69.324 67.81 67.7634 67.6083 66.2651C66.3172 56.6799 68.5194 49.6372 70.5033 46.2875C70.7439 45.8819 71.2789 45.8383 71.6066 46.1716L74.215 48.8232Z" fill="white"/>
<path fill-rule="evenodd" clip-rule="evenodd" d="M108.927 84.7863C98.288 116.178 58.6336 128 58.6336 128C58.6336 128 18.9787 116.178 8.33993 84.7863H108.927ZM111.727 44.9882C111.653 45.0256 111.579 45.0658 111.503 45.1088C103.282 49.802 92.9136 46.1215 81.858 42.1974C73.838 39.3509 65.4569 36.3761 57.2725 36.3761C49.2869 36.3761 42.3308 39.4125 35.598 42.3514C25.9175 46.5769 16.6987 50.601 5.54508 45.1088C5.54409 45.1083 5.54311 45.1079 5.54213 45.1074C5.50764 43.0099 5.47254 41.0914 5.44039 39.334C5.14466 23.1709 5.09818 20.6302 8.07026 17.7039C12.3103 13.5223 51.6977 0 58.6336 0C65.5692 0 104.956 13.5223 109.204 17.7039C112.17 20.6288 112.123 23.1686 111.827 39.3119C111.795 41.042 111.761 42.9284 111.727 44.9882Z" fill="url(#paint0_linear_1003_192)"/>
<path d="M83.3333 37.1969C85.1743 37.1969 86.6667 35.7275 86.6667 33.9149C86.6667 32.1022 85.1743 30.6328 83.3333 30.6328C81.4924 30.6328 80 32.1022 80 33.9149C80 35.7275 81.4924 37.1969 83.3333 37.1969Z" fill="#240170" stroke="#240170" stroke-width="4"/>
<defs>
<linearGradient id="paint0_linear_1003_192" x1="29.8864" y1="9.55229e-07" x2="90.6855" y2="121.759" gradientUnits="userSpaceOnUse">
<stop offset="0.223958" stop-color="white"/>
<stop offset="1" stop-color="white" stop-opacity="0.78"/>
</linearGradient>
</defs>
</svg>
