<svg width="65" height="72" viewBox="0 0 65 72" fill="none" xmlns="http://www.w3.org/2000/svg">
<path d="M0.623686 44.6154C0.431782 44.6154 0.277193 44.5566 0.159919 44.4394C0.053306 44.3326 0 44.1834 0 43.9914V36.4369C0.0106619 35.6046 0.207895 34.8579 0.591701 34.1963C0.986172 33.524 1.51391 32.996 2.1749 32.612C2.84656 32.2277 3.59817 32.0357 4.42977 32.0357C5.28265 32.0357 6.04494 32.2329 6.7166 32.628C7.38827 33.012 7.916 33.54 8.29981 34.2123C8.69427 34.8846 8.8915 35.6474 8.8915 36.5009C8.8915 37.344 8.69961 38.1016 8.31579 38.7739C7.94265 39.4459 7.43091 39.9794 6.78057 40.3742C6.13022 40.7582 5.39459 40.9505 4.57368 40.9505C3.85937 40.9505 3.20905 40.8009 2.62267 40.5022C2.04696 40.1929 1.5832 39.7874 1.23138 39.2859V43.9914C1.23138 44.1834 1.17273 44.3326 1.05546 44.4394C0.948846 44.5566 0.80492 44.6154 0.623686 44.6154ZM4.42977 39.8302C5.04811 39.8302 5.6025 39.6859 6.09292 39.3979C6.58334 39.1099 6.96715 38.7151 7.24433 38.2136C7.53218 37.7013 7.67612 37.1305 7.67612 36.5009C7.67612 35.8609 7.53218 35.2899 7.24433 34.7886C6.96715 34.2871 6.58334 33.8923 6.09292 33.604C5.6025 33.3056 5.04811 33.156 4.42977 33.156C3.82206 33.156 3.27302 33.3056 2.78259 33.604C2.29217 33.8923 1.90836 34.2871 1.63117 34.7886C1.35399 35.2899 1.21538 35.8609 1.21538 36.5009C1.21538 37.1305 1.35399 37.7013 1.63117 38.2136C1.90836 38.7151 2.29217 39.1099 2.78259 39.3979C3.27302 39.6859 3.82206 39.8302 4.42977 39.8302ZM11.8185 35.4766C11.8505 34.8151 12.0211 34.2231 12.3302 33.7003C12.6501 33.1773 13.0605 32.7665 13.5616 32.4677C14.0734 32.1689 14.6384 32.0197 15.2568 32.0197C15.7472 32.0197 16.1257 32.0889 16.3922 32.2277C16.6588 32.3665 16.76 32.5693 16.6961 32.836C16.6534 32.996 16.5789 33.1028 16.4722 33.156C16.3762 33.2093 16.2536 33.2308 16.1043 33.22C15.9658 33.2093 15.8058 33.1988 15.6246 33.188C15.0276 33.1348 14.4945 33.1988 14.0254 33.38C13.567 33.5508 13.1991 33.8176 12.922 34.1803C12.6554 34.5431 12.5221 34.9754 12.5221 35.4766H11.8185ZM11.9145 40.8705C11.7225 40.8705 11.5733 40.8169 11.4667 40.7102C11.3601 40.6037 11.3068 40.4542 11.3068 40.2622V32.724C11.3068 32.5317 11.3601 32.3825 11.4667 32.2757C11.5733 32.1689 11.7225 32.1157 11.9145 32.1157C12.1064 32.1157 12.2556 32.1689 12.3622 32.2757C12.4689 32.3825 12.5221 32.5317 12.5221 32.724V40.2622C12.5221 40.4542 12.4689 40.6037 12.3622 40.7102C12.2556 40.8169 12.1064 40.8705 11.9145 40.8705ZM21.9729 40.9505C21.12 40.9505 20.3577 40.7582 19.6861 40.3742C19.0144 39.9902 18.4867 39.4619 18.1028 38.7899C17.719 38.1176 17.5271 37.3545 17.5271 36.5009C17.5271 35.6366 17.719 34.8686 18.1028 34.1963C18.4867 33.524 19.0144 32.996 19.6861 32.612C20.3577 32.2277 21.12 32.0357 21.9729 32.0357C22.8257 32.0357 23.5828 32.2277 24.2437 32.612C24.9154 32.996 25.4431 33.524 25.8269 34.1963C26.2107 34.8686 26.4079 35.6366 26.4186 36.5009C26.4186 37.3545 26.2215 38.1176 25.8269 38.7899C25.4431 39.4619 24.9154 39.9902 24.2437 40.3742C23.5828 40.7582 22.8257 40.9505 21.9729 40.9505ZM21.9729 39.8302C22.5913 39.8302 23.1456 39.6859 23.636 39.3979C24.1265 39.1099 24.5103 38.7151 24.7875 38.2136C25.0646 37.712 25.2032 37.1413 25.2032 36.5009C25.2032 35.8609 25.0646 35.2899 24.7875 34.7886C24.5103 34.2763 24.1265 33.8763 23.636 33.588C23.1456 33.3 22.5913 33.156 21.9729 33.156C21.3545 33.156 20.8002 33.3 20.3097 33.588C19.8193 33.8763 19.4302 34.2763 19.1423 34.7886C18.8652 35.2899 18.7265 35.8609 18.7265 36.5009C18.7265 37.1413 18.8652 37.712 19.1423 38.2136C19.4302 38.7151 19.8193 39.1099 20.3097 39.3979C20.8002 39.6859 21.3545 39.8302 21.9729 39.8302ZM34.1259 40.8705C33.9981 40.8705 33.8914 40.8489 33.8063 40.8062C33.7315 40.7637 33.6515 40.6889 33.5664 40.5822L30.7997 37.0612L30.32 36.6449L27.5374 33.108C27.42 32.9693 27.3615 32.8253 27.3615 32.676C27.372 32.5265 27.4254 32.3985 27.5214 32.2917C27.6173 32.1745 27.7558 32.1157 27.9372 32.1157C28.1183 32.1157 28.273 32.1797 28.4009 32.3077L31.0876 35.7489L31.5193 36.1009L34.494 39.9102C34.6324 40.0806 34.6912 40.2409 34.6698 40.3902C34.6485 40.5397 34.5791 40.6569 34.4619 40.7422C34.3552 40.8277 34.2434 40.8705 34.1259 40.8705ZM27.7932 40.8705C27.6226 40.8705 27.4839 40.8169 27.3774 40.7102C27.2815 40.6037 27.2281 40.4754 27.2175 40.3262C27.2175 40.1769 27.276 40.0326 27.3934 39.8942L30.3359 36.2129L31.0236 37.1252L28.225 40.6782C28.129 40.8062 27.9851 40.8705 27.7932 40.8705ZM31.5354 36.7093L30.7517 35.9089L33.5183 32.4037C33.5928 32.2973 33.6728 32.2225 33.7582 32.1797C33.854 32.1369 33.9501 32.1157 34.0462 32.1157C34.2274 32.1157 34.3658 32.1745 34.4619 32.2917C34.5577 32.3985 34.6004 32.5317 34.5897 32.692C34.5897 32.8413 34.5364 32.9853 34.4299 33.124L31.5354 36.7093Z" fill="white"/>
<path d="M49.0665 40.9501C48.235 40.9501 47.4835 40.7581 46.8119 40.3738C46.1509 39.9898 45.623 39.4671 45.2286 38.8055C44.8446 38.1332 44.6477 37.3809 44.6367 36.5489V28.9945C44.6367 28.8025 44.6901 28.6531 44.7969 28.5464C44.914 28.429 45.0685 28.3703 45.2607 28.3703C45.4418 28.3703 45.5857 28.429 45.6924 28.5464C45.8095 28.6531 45.8683 28.8025 45.8683 28.9945V33.7C46.22 33.1985 46.6837 32.7985 47.2596 32.4997C47.8459 32.1901 48.4962 32.0354 49.2106 32.0354C50.0314 32.0354 50.7671 32.2329 51.4174 32.6277C52.0678 33.0117 52.5796 33.54 52.9526 34.212C53.3364 34.8843 53.5282 35.6418 53.5282 36.4846C53.5282 37.3385 53.331 38.1012 52.9366 38.7735C52.5529 39.4455 52.0251 39.9791 51.3534 40.3738C50.6817 40.7581 49.9193 40.9501 49.0665 40.9501ZM49.0665 39.8298C49.6851 39.8298 50.2393 39.6858 50.7298 39.3975C51.2202 39.0988 51.604 38.6988 51.8812 38.1972C52.1689 37.6957 52.313 37.1249 52.313 36.4846C52.313 35.8554 52.1689 35.2898 51.8812 34.7883C51.604 34.276 51.2202 33.876 50.7298 33.588C50.2393 33.2997 49.6851 33.1557 49.0665 33.1557C48.4588 33.1557 47.91 33.2997 47.4195 33.588C46.929 33.876 46.5453 34.276 46.268 34.7883C45.9907 35.2898 45.8523 35.8554 45.8523 36.4846C45.8523 37.1249 45.9907 37.6957 46.268 38.1972C46.5453 38.6988 46.929 39.0988 47.4195 39.3975C47.91 39.6858 48.4588 39.8298 49.0665 39.8298ZM56.8231 40.8701C56.6313 40.8701 56.4768 40.8166 56.3593 40.7101C56.2529 40.5926 56.1995 40.4378 56.1995 40.2458V32.7397C56.1995 32.5477 56.2529 32.3981 56.3593 32.2914C56.4768 32.1741 56.6313 32.1154 56.8231 32.1154C57.0043 32.1154 57.1484 32.1741 57.2549 32.2914C57.3723 32.3981 57.431 32.5477 57.431 32.7397V40.2458C57.431 40.4378 57.3723 40.5926 57.2549 40.7101C57.1484 40.8166 57.0043 40.8701 56.8231 40.8701ZM56.8071 30.4509C56.5725 30.4509 56.37 30.3656 56.1995 30.1949C56.029 30.0241 55.9436 29.8161 55.9436 29.5707C55.9436 29.3039 56.029 29.0959 56.1995 28.9465C56.3807 28.7865 56.5886 28.7064 56.8231 28.7064C57.047 28.7064 57.2442 28.7865 57.415 28.9465C57.5962 29.0959 57.6866 29.3039 57.6866 29.5707C57.6866 29.8161 57.6015 30.0241 57.431 30.1949C57.2602 30.3656 57.0523 30.4509 56.8071 30.4509ZM63.9885 40.8701C63.4236 40.8701 62.9171 40.7366 62.4693 40.4698C62.0322 40.2031 61.6859 39.8403 61.43 39.3815C61.174 38.912 61.0462 38.3788 61.0462 37.7812V29.9548C61.0462 29.7734 61.0993 29.624 61.2061 29.5067C61.3232 29.3893 61.4723 29.3306 61.6538 29.3306C61.835 29.3306 61.9842 29.3893 62.1016 29.5067C62.2187 29.624 62.2775 29.7734 62.2775 29.9548V37.7812C62.2775 38.3252 62.4373 38.7735 62.7573 39.1255C63.0769 39.4671 63.4873 39.6378 63.9885 39.6378H64.4203C64.5908 39.6378 64.7296 39.6963 64.8363 39.8138C64.9428 39.9311 64.9962 40.0806 64.9962 40.2618C64.9962 40.4434 64.9321 40.5926 64.8043 40.7101C64.6762 40.8166 64.5164 40.8701 64.3245 40.8701H63.9885ZM60.0066 33.508C59.8467 33.508 59.7133 33.46 59.6068 33.3637C59.5 33.2572 59.447 33.1292 59.447 32.9797C59.447 32.8197 59.5 32.6917 59.6068 32.5957C59.7133 32.4889 59.8467 32.4357 60.0066 32.4357H64.0846C64.2444 32.4357 64.3776 32.4889 64.4843 32.5957C64.5908 32.6917 64.6442 32.8197 64.6442 32.9797C64.6442 33.1292 64.5908 33.2572 64.4843 33.3637C64.3776 33.46 64.2444 33.508 64.0846 33.508H60.0066Z" fill="white"/>
<path fill-rule="evenodd" clip-rule="evenodd" d="M41.9483 27.4628C42.115 27.6316 42.1185 27.9057 41.9756 28.0964C40.8486 29.5997 39.8676 32.8197 39.7066 37.1929C39.6764 38.0095 39.6748 38.8665 39.7066 39.76C39.7175 40.0692 39.7323 40.3831 39.7511 40.7009L39.754 40.7477C39.7854 41.2637 39.1153 41.4289 38.9762 40.932C38.9636 40.888 38.9517 40.8443 38.9397 40.8006C38.8568 40.4985 38.7799 40.2 38.7089 39.9046C38.4904 38.9945 38.3281 38.1166 38.2141 37.2738C37.4843 31.8822 38.729 27.9207 39.8504 26.0365C39.9863 25.8083 40.2887 25.7838 40.474 25.9713L41.9483 27.4628Z" fill="white"/>
<path fill-rule="evenodd" clip-rule="evenodd" d="M60.7661 47.6923C54.7528 65.3498 32.3394 72 32.3394 72C32.3394 72 9.9258 65.3498 3.91258 47.6923H60.7661ZM62.3487 25.3059C62.3069 25.3269 62.2649 25.3495 62.2222 25.3737C57.5758 28.0136 51.7151 25.9434 45.4663 23.736C40.9333 22.1349 36.1961 20.4615 31.5701 20.4615C27.0565 20.4615 23.1248 22.1695 19.3193 23.8226C13.8478 26.1995 8.63711 28.463 2.33288 25.3737C2.33233 25.3734 2.33177 25.3732 2.33121 25.3729C2.31172 24.193 2.29188 23.1139 2.27371 22.1254C2.10656 13.0336 2.08029 11.6045 3.76016 9.95843C6.15668 7.60628 28.4192 0 32.3394 0C36.2595 0 58.5219 7.60628 60.9225 9.95843C62.599 11.6037 62.5726 13.0323 62.4052 22.113C62.3873 23.0861 62.3679 24.1472 62.3487 25.3059Z" fill="url(#paint0_linear_1003_668)"/>
<path d="M47.1028 20.9231C48.1433 20.9231 48.9869 20.0965 48.9869 19.0769C48.9869 18.0573 48.1433 17.2308 47.1028 17.2308C46.0623 17.2308 45.2188 18.0573 45.2188 19.0769C45.2188 20.0965 46.0623 20.9231 47.1028 20.9231Z" stroke="#5633FF" stroke-width="4"/>
<defs>
<linearGradient id="paint0_linear_1003_668" x1="16.091" y1="5.37316e-07" x2="50.1914" y2="68.6207" gradientUnits="userSpaceOnUse">
<stop offset="0.223958" stop-color="white"/>
<stop offset="1" stop-color="white" stop-opacity="0.78"/>
</linearGradient>
</defs>
</svg>
