<svg width="28" height="32" viewBox="0 0 28 32" fill="none" xmlns="http://www.w3.org/2000/svg">
<path fill-rule="evenodd" clip-rule="evenodd" d="M2.95137 15.803C4.49212 15.803 5.51743 14.7077 5.51743 13.0619L5.50998 12.1972C5.50998 12.1972 5.12852 9.74632 8.18955 9.74632L20.5844 9.83776V13.3342C20.8738 13.6413 21.2651 13.8137 21.673 13.8137C22.0809 13.8137 22.4722 13.6413 22.7616 13.3342L27.5494 8.22172C27.8369 7.91263 27.9983 7.49461 27.9983 7.05889C27.9983 6.62318 27.8369 6.20515 27.5494 5.89606L22.7616 0.479461C22.4722 0.172361 22.0809 0 21.673 0C21.2651 0 20.8738 0.172361 20.5844 0.479461V4.14685C20.2848 4.05342 8.5766 3.99976 8.5766 3.99976C1.67113 3.99976 0.160156 8.82798 0.160156 10.772V12.8214C0.160156 13.6121 0.45423 14.3705 0.977684 14.9297C1.50114 15.4888 2.21109 15.803 2.95137 15.803Z" fill="#3053FF"/>
<path fill-rule="evenodd" clip-rule="evenodd" d="M25.2088 15.8845C23.668 15.8845 22.4176 17.0454 22.4176 18.6912L22.4213 20.5935C22.3376 21.3031 21.2211 21.7662 19.5836 21.7662H7.41572L7.412 18.6674C7.12264 18.3603 6.73131 18.1879 6.32342 18.1879C5.91553 18.1879 5.5242 18.3603 5.23485 18.6674L0.448844 23.7798C0.161354 24.0889 0 24.5069 0 24.9426C0 25.3784 0.161354 25.7964 0.448844 26.1055L5.23485 31.2179C5.37764 31.371 5.5473 31.4924 5.7341 31.5752C5.9209 31.658 6.12116 31.7007 6.32342 31.7007C6.52568 31.7007 6.72595 31.658 6.91275 31.5752C7.09955 31.4924 7.26921 31.371 7.412 31.2179L7.41572 27.5386H19.5836C26.489 27.5386 28 22.6846 28 20.7386V18.6892C28 17.0454 26.7495 15.8845 25.2088 15.8845Z" fill="#3053FF"/>
</svg>
