<svg width="30" height="28" viewBox="0 0 30 28" fill="none" xmlns="http://www.w3.org/2000/svg">
<path d="M15 12.7294C23.2852 12.7294 30 9.87814 30 6.36472C30 2.8513 23.2852 0 15 0C6.71484 0 0 2.8513 0 6.36472C0 9.87814 6.71484 12.7294 15 12.7294ZM15 22.9058C9.27539 22.9058 4.21289 21.504 1.01953 19.3387C0.369141 20.0545 0 20.824 0 21.6353C0 25.1487 6.71484 28 15 28C23.2852 28 30 25.1487 30 21.6353C30 20.824 29.6309 20.0545 28.9805 19.3447C25.7871 21.504 20.7246 22.9058 15 22.9058ZM15 15.2706C9.27539 15.2706 4.21289 13.8688 1.01953 11.7035C0.369141 12.4193 0 13.1888 0 14C0 17.5134 6.71484 20.3647 15 20.3647C23.2852 20.3647 30 17.5134 30 14C30 13.1888 29.6309 12.4193 28.9805 11.7094C25.7871 13.8688 20.7246 15.2706 15 15.2706Z" fill="#3053FF"/>
</svg>
