<svg width="22" height="22" viewBox="0 0 22 22" fill="none" xmlns="http://www.w3.org/2000/svg">
<path d="M9.55423 5.24882L6.17123 1.34382C5.78123 0.893819 5.06623 0.895819 4.61323 1.34982L1.83123 4.13682C1.00323 4.96582 0.766232 6.19682 1.24523 7.18382C4.10685 13.1088 8.88528 17.8939 14.8062 20.7638C15.7922 21.2428 17.0222 21.0058 17.8502 20.1768L20.6582 17.3638C21.1132 16.9088 21.1142 16.1898 20.6602 15.7998L16.7402 12.4348C16.3302 12.0828 15.6932 12.1288 15.2822 12.5408L13.9182 13.9068C13.8484 13.98 13.7565 14.0282 13.6566 14.0441C13.5567 14.06 13.4543 14.0427 13.3652 13.9948C11.1357 12.7109 9.28622 10.859 8.00523 8.62782C7.95726 8.53857 7.93989 8.43605 7.95578 8.33598C7.97168 8.2359 8.01996 8.14381 8.09323 8.07382L9.45323 6.71282C9.86523 6.29882 9.91023 5.65882 9.55423 5.24782V5.24882Z" stroke="white" stroke-width="1.7" stroke-linecap="round" stroke-linejoin="round"/>
</svg>
