<svg width="23" height="24" viewBox="0 0 23 24" fill="none" xmlns="http://www.w3.org/2000/svg">
<path d="M21.1671 19.3711C20.6144 18.062 19.8124 16.873 18.8057 15.8701C17.8021 14.8644 16.6133 14.0625 15.3048 13.5088C15.293 13.5029 15.2813 13.5 15.2696 13.4941C17.0948 12.1758 18.2813 10.0283 18.2813 7.60547C18.2813 3.5918 15.0294 0.339844 11.0157 0.339844C7.00203 0.339844 3.75007 3.5918 3.75007 7.60547C3.75007 10.0283 4.9366 12.1758 6.76179 13.4971C6.75007 13.5029 6.73836 13.5059 6.72664 13.5117C5.41414 14.0654 4.2364 14.8594 3.22566 15.873C2.21993 16.8767 1.41806 18.0655 0.864331 19.374C0.320353 20.655 0.0269735 22.0285 7.32598e-05 23.4199C-0.000708689 23.4512 0.00477577 23.4823 0.0162036 23.5114C0.0276315 23.5405 0.0447714 23.5671 0.0666135 23.5895C0.0884556 23.6118 0.114558 23.6296 0.143382 23.6418C0.172207 23.6539 0.20317 23.6602 0.234448 23.6602H1.99226C2.12117 23.6602 2.22371 23.5576 2.22664 23.4316C2.28523 21.1699 3.19343 19.0518 4.7989 17.4463C6.46004 15.7852 8.66609 14.8711 11.0157 14.8711C13.3653 14.8711 15.5714 15.7852 17.2325 17.4463C18.838 19.0518 19.7462 21.1699 19.8048 23.4316C19.8077 23.5605 19.9102 23.6602 20.0391 23.6602H21.797C21.8282 23.6602 21.8592 23.6539 21.888 23.6418C21.9168 23.6296 21.9429 23.6118 21.9648 23.5895C21.9866 23.5671 22.0038 23.5405 22.0152 23.5114C22.0266 23.4823 22.0321 23.4512 22.0313 23.4199C22.002 22.0195 21.712 20.6572 21.1671 19.3711ZM11.0157 12.6445C9.67097 12.6445 8.40535 12.1201 7.4532 11.168C6.50105 10.2158 5.97664 8.9502 5.97664 7.60547C5.97664 6.26074 6.50105 4.99512 7.4532 4.04297C8.40535 3.09082 9.67097 2.56641 11.0157 2.56641C12.3604 2.56641 13.6261 3.09082 14.5782 4.04297C15.5303 4.99512 16.0548 6.26074 16.0548 7.60547C16.0548 8.9502 15.5303 10.2158 14.5782 11.168C13.6261 12.1201 12.3604 12.6445 11.0157 12.6445Z" fill="white"/>
</svg>
